# xmcd
#
# Track frame offsets:
#	150
#	13585
#	28420
#	42674
#	61030
#	78346
#	91497
#	116547
#
# Disc length: 1703 seconds
#
# Revision: 4
# Processed by: cddbd v1.4PL0 Copyright (c) Steve Scherf et al.
# Submitted via: audiograbber 1.81.01
#
DISCID=6106a508
DTITLE=Mark Weigle - Show Sampler
DYEAR=2002
DGENRE=Country
TTITLE0=Bears (from "Out of the Loop")
TTITLE1=Two Cowboy Waltz (from The Truth Is)
TTITLE2=A Good Day (from All That Matters)
TTITLE3=Green (from "All That Matters")
TTITLE4=One Less Dancers (from "The Truth Is")
TTITLE5=In the Last 5 Minutes - "Out Of The Loop"
TTITLE6=Past The Last Neon Light (demo)
TTITLE7=Data Track
EXTD=from mp3.com
EXTT0=
EXTT1=
EXTT2=
EXTT3=
EXTT4=
EXTT5=
EXTT6=
EXTT7=
PLAYORDER=
